<?xml version="1.0" standalone="no"?>
<!DOCTYPE svg PUBLIC "-//W3C//DTD SVG 20010904//EN"
 "http://www.w3.org/TR/2001/REC-SVG-20010904/DTD/svg10.dtd">
<svg version="1.0" xmlns="http://www.w3.org/2000/svg"
 width="500.000000pt" height="500.000000pt" viewBox="0 0 500.000000 500.000000"
 preserveAspectRatio="xMidYMid meet">

<g transform="translate(0.000000,500.000000) scale(0.100000,-0.100000)"
fill="#000000" stroke="none">
<path d="M1605 3918 c-2 -7 -68 -436 -145 -953 -78 -517 -143 -948 -146 -957
-5 -17 -27 -18 -275 -18 l-269 0 0 -410 0 -410 1730 0 1730 0 0 410 0 410
-270 0 c-148 0 -270 1 -271 3 0 1 -67 436 -147 967 l-147 965 -232 3 -231 2
-6 -27 c-8 -42 -286 -1886 -286 -1901 0 -9 -35 -12 -140 -12 -105 0 -140 3
-140 12 0 15 -278 1859 -286 1901 l-6 27 -229 0 c-175 0 -231 -3 -234 -12z
m249 -800 c3 -18 28 -202 56 -408 27 -206 52 -392 56 -412 l6 -38 -131 0
c-113 0 -131 2 -131 16 0 25 110 837 116 857 8 27 21 20 28 -15z m1320 15 c6
-20 116 -834 116 -858 0 -13 -22 -15 -131 -15 l-131 0 6 38 c4 20 29 206 56
412 28 206 53 390 56 408 7 35 20 42 28 15z m-1874 -1217 c0 -11 -70 -482 -83
-564 l-4 -22 185 2 186 3 33 250 c18 138 35 256 38 263 3 9 49 12 184 12 179
0 181 0 185 -22 6 -27 66 -480 66 -496 0 -9 52 -12 185 -12 122 0 185 4 185
10 0 16 -79 541 -85 568 -5 22 -5 22 125 22 130 0 130 0 125 -22 -7 -31 -85
-549 -85 -565 0 -10 42 -13 185 -13 133 0 185 3 185 12 0 16 60 469 66 496 4
22 6 22 185 22 135 0 181 -3 184 -12 3 -7 20 -125 38 -263 l33 -250 186 -3
185 -2 -4 22 c-13 82 -83 553 -83 564 0 11 44 14 240 14 l240 0 0 -355 0 -355
-1680 0 -1680 0 0 355 0 355 240 0 c196 0 240 -3 240 -14z"/>
</g>
</svg>
